<svg width="122" height="108" viewBox="0 0 122 108" fill="none" xmlns="http://www.w3.org/2000/svg">
<path d="M56.3403 92.0931C51.9135 92.0931 48.124 90.5355 44.9716 87.4204C41.8192 84.3053 40.243 80.5605 40.243 76.1861C40.243 71.8117 41.8192 68.0669 44.9716 64.9518C48.124 61.8367 51.9135 60.2791 56.3403 60.2791C57.8829 60.2791 59.3089 60.462 60.6181 60.8279C61.9273 61.1938 63.1843 61.7399 64.3889 62.4663V28.4652H88.5347V40.3954H72.4375V76.1861C72.4375 80.5605 70.8613 84.3053 67.7089 87.4204C64.5565 90.5355 60.767 92.0931 56.3403 92.0931ZM8.04858 76.1861C8.04858 69.6245 9.32295 63.4433 11.8717 57.6425C14.4204 51.8418 17.8746 46.7887 22.2343 42.4832C26.5939 38.1777 31.7088 34.7643 37.5789 32.2431C43.4491 29.7218 49.7028 28.4625 56.3403 28.4652V36.4186C50.8404 36.4186 45.6423 37.4632 40.7461 39.5523C35.8498 41.6414 31.5747 44.4914 27.9206 48.1023C24.2665 51.7132 21.3825 55.9206 19.2683 60.7245C17.1542 65.5284 16.0972 70.6823 16.0972 76.1861H8.04858ZM24.1458 76.1861C24.1458 71.8117 25.0016 67.6851 26.7133 63.8065C28.425 59.9278 30.739 56.5476 33.6552 53.6658C36.5715 50.784 39.9747 48.5146 43.8649 46.8576C47.7551 45.2006 51.9135 44.3721 56.3403 44.3721V52.3256C49.6331 52.3256 43.932 54.6454 39.237 59.2849C34.5419 63.9245 32.1944 69.5582 32.1944 76.1861H24.1458Z" fill="#43BD2B"/>
<path d="M55.5577 84.9902C51.6244 84.9902 48.2583 83.7287 45.4593 81.2058C42.6603 78.6828 41.2608 75.6536 41.2608 72.1181C41.2608 68.5825 42.6603 65.5519 45.4593 63.0261C48.2583 60.5003 51.6244 59.2403 55.5577 59.246C57.3845 59.246 59.1176 59.5377 60.757 60.1213C62.3995 60.7077 63.8435 61.5873 65.0889 62.7601V17.9866H88.3642V28.8807H69.8546V72.1181C69.8546 75.6565 68.4535 78.6857 65.6513 81.2058C62.8491 83.7258 59.4846 84.9873 55.5577 84.9902Z" fill="#F5F5F5"/>
</svg>
