<svg width="267" height="57" viewBox="0 0 267 57" fill="none" xmlns="http://www.w3.org/2000/svg">
<path d="M14.5 56.5C9.47917 56.5 5.85417 55.25 3.625 52.75C1.41667 50.25 0.3125 46.2708 0.3125 40.8125V35.4375H11.1875V42.3125C11.1875 43.5833 11.375 44.5833 11.75 45.3125C12.1458 46.0208 12.8229 46.375 13.7812 46.375C14.7812 46.375 15.4688 46.0833 15.8438 45.5C16.2396 44.9167 16.4375 43.9583 16.4375 42.625C16.4375 40.9375 16.2708 39.5312 15.9375 38.4062C15.6042 37.2604 15.0208 36.1771 14.1875 35.1562C13.375 34.1146 12.2396 32.9062 10.7812 31.5312L5.84375 26.8438C2.15625 23.3646 0.3125 19.3854 0.3125 14.9062C0.3125 10.2188 1.39583 6.64583 3.5625 4.1875C5.75 1.72917 8.90625 0.5 13.0312 0.5C18.0729 0.5 21.6458 1.84375 23.75 4.53125C25.875 7.21875 26.9375 11.3021 26.9375 16.7812H15.75V13C15.75 12.25 15.5312 11.6667 15.0938 11.25C14.6771 10.8333 14.1042 10.625 13.375 10.625C12.5 10.625 11.8542 10.875 11.4375 11.375C11.0417 11.8542 10.8438 12.4792 10.8438 13.25C10.8438 14.0208 11.0521 14.8542 11.4688 15.75C11.8854 16.6458 12.7083 17.6771 13.9375 18.8438L20.2812 24.9375C21.5521 26.1458 22.7188 27.4271 23.7812 28.7812C24.8438 30.1146 25.6979 31.6771 26.3438 33.4688C26.9896 35.2396 27.3125 37.4062 27.3125 39.9688C27.3125 45.1354 26.3542 49.1875 24.4375 52.125C22.5417 55.0417 19.2292 56.5 14.5 56.5ZM30.5 56V7.25H41.125V56H30.5ZM45.5 56V7.25H56.8125L62.5 33.6875V7.25H72.5V56H61.75L55.625 29.5938V56H45.5ZM88.7188 56.5C80.8646 56.5 76.9375 50.875 76.9375 39.625V22.3438C76.9375 12.0729 81.4375 6.9375 90.4375 6.9375C94.1458 6.9375 96.9896 7.61458 98.9688 8.96875C100.948 10.3021 102.312 12.2188 103.062 14.7188C103.812 17.2188 104.188 20.2292 104.188 23.75H93.4375V21.25C93.4375 20.0625 93.2708 19.0729 92.9375 18.2812C92.625 17.4688 91.9583 17.0625 90.9375 17.0625C89.6667 17.0625 88.8229 17.4896 88.4062 18.3438C88.0104 19.1979 87.8125 20.1354 87.8125 21.1562V41.375C87.8125 42.8542 88 44.0625 88.375 45C88.7708 45.9167 89.5312 46.375 90.6562 46.375C91.8229 46.375 92.5938 45.9167 92.9688 45C93.3646 44.0625 93.5625 42.8333 93.5625 41.3125V37.375H90.625V27.875H104.062V56H99.6562L97.7812 51.375C95.8646 54.7917 92.8438 56.5 88.7188 56.5Z" fill="#E2E2E2"/>
<path d="M121.688 56.5C117.292 56.5 113.927 55.1771 111.594 52.5312C109.281 49.8646 108.125 46.0208 108.125 41V14.875C108.125 10.1667 109.271 6.59375 111.562 4.15625C113.875 1.71875 117.25 0.5 121.688 0.5C126.125 0.5 129.49 1.71875 131.781 4.15625C134.094 6.59375 135.25 10.1667 135.25 14.875V41C135.25 46.0208 134.083 49.8646 131.75 52.5312C129.438 55.1771 126.083 56.5 121.688 56.5ZM121.781 46.375C123.448 46.375 124.281 44.7604 124.281 41.5312V14.6875C124.281 11.9792 123.469 10.625 121.844 10.625C120.01 10.625 119.094 12.0104 119.094 14.7812V41.5938C119.094 43.3021 119.302 44.5312 119.719 45.2812C120.135 46.0104 120.823 46.375 121.781 46.375ZM139.688 56V7.25H151L156.688 33.6875V7.25H166.688V56H155.938L149.812 29.5938V56H139.688ZM171.562 56V7.25H182.562V46.625H193.875V56H171.562ZM196.5 56V7.25H207.125V56H196.5ZM211.5 56V7.25H222.812L228.5 33.6875V7.25H238.5V56H227.75L221.625 29.5938V56H211.5ZM243.375 56V7.25H265.375V17.875H254.562V25.9375H264.938V36.2812H254.562V45.2812H266.094V56H243.375Z" fill="#43BD2B"/>
</svg>
